<svg class="icon" height="512" viewBox="0 0 1024 1024" xmlns="http://www.w3.org/2000/svg"><path fill="#fff" d="M955.688 502.922c-2.13-150.412-85.792-296.552-213.957-373.79-101.768-63.284-229.285-80.675-344.673-50.857C223.118 121.84 85.163 280.635 67.5 460.658c-21.935 170.381 63.443 347.828 209.693 435.796 143.495 90.567 337.864 86.92 478.376-8.34 126.247-82.647 204.805-233.27 200.119-385.192zM534.793 895.616c-202.676 20.367-398.529-152.803-404.278-357.91-15.116-166.086 93.454-330.895 248.87-385.818C597.382 63.9 864.777 226.34 887.35 461.935c35.127 212.02-139.443 427.435-352.556 433.681zM403.84 489.181c95.528-78.83 188.96-160.389 286.559-236.898-51.193 79.444-103.84 157.863-155.031 237.309-43.915.225-87.823.225-131.528-.41zm80.743 43.93c44.117 0 88.025 0 131.942.658-96.146 78.379-189.173 160.574-286.973 236.9 51.191-79.488 103.837-158.07 155.031-237.557z"/></svg>