<svg version="1.0" xmlns="http://www.w3.org/2000/svg" width="76" height="76" viewBox="0 0 57 57"><path d="M9.7 6.4C3.1 8.2 1 10.4 1 15.6c0 3.4.5 4.7 2.5 6.3 2.6 1.9 10.4 4.1 15 4.1 2.3 0 2.5-.4 2.5-4.3v-4.3l-7-1.1c-12.7-2-12.7-5.6-.1-7.6C18.4 8 21 7.1 21 6.3c0-1.6-4.9-1.6-11.3.1zM1 27.1c0 2.4.4 4.9.8 5.6 1.2 1.9 7.5 4.2 13.6 4.9l5.6.7v-4.7c0-4.1-.2-4.6-2.3-4.6-3.9 0-14-3-15.9-4.7C1.1 22.8 1 22.9 1 27.1zm0 12c0 2.4.4 4.9.8 5.6 1.2 1.9 7.5 4.2 13.6 4.9l5.6.7v-4.7c0-4.1-.2-4.6-2.3-4.6-3.9 0-14-3-15.9-4.7C1.1 34.8 1 34.9 1 39.1z" fill="#FFF"/></svg>