<?xml version="1.0" standalone="no"?><!DOCTYPE svg PUBLIC "-//W3C//DTD SVG 1.1//EN" "http://www.w3.org/Graphics/SVG/1.1/DTD/svg11.dtd"><svg class="icon" height="512" viewBox="0 0 1024 1024" version="1.1" xmlns="http://www.w3.org/2000/svg"><path fill="white" d="M955.68766 502.922251c-2.130524-150.412708-85.791945-296.55209-213.956953-373.790218-101.767801-63.284325-229.285057-80.675414-344.673064-50.857295C223.118102 121.839953 85.163123 280.634562 67.499835 460.657658c-21.934568 170.381505 63.442938 347.827917 209.692836 435.796434 143.495158 90.566692 337.863984 86.919628 478.376205-8.339946C881.816209 805.466821 960.374402 654.844336 955.68766 502.922251zM534.792611 895.616004c-202.676026 20.366863-398.528646-152.803151-404.27758-357.909529-15.116279-166.086689 93.454462-330.895269 248.870114-385.818159 217.996966-87.988983 485.391992 74.451666 507.96408 310.046429C922.476257 673.955602 747.906359 889.369743 534.792611 895.616004zM403.84114 489.181295c95.52768-78.830393 188.960653-160.38892 286.558481-236.898455-51.192939 79.444377-103.838973 157.863401-155.030889 237.308801C491.453546 489.816768 447.545524 489.816768 403.84114 489.181295L403.84114 489.181295zM484.584092 533.11183c44.116777 0 88.024799 0 131.942031 0.656963-96.145757 78.379115-189.1735 160.574139-286.97292 236.899478C380.744096 691.180915 433.390129 612.598162 484.584092 533.11183L484.584092 533.11183z" /></svg>